<?xml version="1.0" encoding="UTF-8" standalone="no"?>
<!-- Creator: CorelDRAW -->

<svg
   xmlns:dc="http://purl.org/dc/elements/1.1/"
   xmlns:cc="http://creativecommons.org/ns#"
   xmlns:rdf="http://www.w3.org/1999/02/22-rdf-syntax-ns#"
   xmlns:svg="http://www.w3.org/2000/svg"
   xmlns="http://www.w3.org/2000/svg"
   xmlns:sodipodi="http://sodipodi.sourceforge.net/DTD/sodipodi-0.dtd"
   xmlns:inkscape="http://www.inkscape.org/namespaces/inkscape"
   xml:space="preserve"
   width="48"
   height="37.205864"
   style="fill-rule:evenodd"
   viewBox="0 0 48 37.256761"
   id="svg2"
   version="1.1"
   inkscape:version="0.47pre4 r22446"
   sodipodi:docname="brain.svg"
   inkscape:export-filename="/home/jtolds/dualnback/res/drawable/brain.png"
   inkscape:export-xdpi="90"
   inkscape:export-ydpi="90"><metadata
   id="metadata457"><rdf:RDF><cc:Work
       rdf:about=""><dc:format>image/svg+xml</dc:format><dc:type
         rdf:resource="http://purl.org/dc/dcmitype/StillImage" /><dc:title /></cc:Work></rdf:RDF></metadata><sodipodi:namedview
   pagecolor="#ffffff"
   bordercolor="#666666"
   borderopacity="1"
   objecttolerance="10"
   gridtolerance="10"
   guidetolerance="10"
   inkscape:pageopacity="0"
   inkscape:pageshadow="2"
   inkscape:window-width="854"
   inkscape:window-height="615"
   id="namedview455"
   showgrid="false"
   inkscape:zoom="4.9879155"
   inkscape:cx="42.719484"
   inkscape:cy="15.175776"
   inkscape:window-x="0"
   inkscape:window-y="25"
   inkscape:window-maximized="0"
   inkscape:current-layer="svg2" />
 <defs
   id="defs4"><inkscape:perspective
   sodipodi:type="inkscape:persp3d"
   inkscape:vp_x="0 : 365.5 : 1"
   inkscape:vp_y="0 : 1000 : 0"
   inkscape:vp_z="1024 : 365.5 : 1"
   inkscape:persp3d-origin="512 : 243.66667 : 1"
   id="perspective459" />
  <style
   type="text/css"
   id="style6">
   
    .str2 {stroke:#000000;stroke-width:2}
    .str0 {stroke:#000000;stroke-width:2}
    .str1 {stroke:#000000;stroke-width:4}
    .str3 {stroke:#000000;stroke-width:2;stroke-dasharray:5 7}
    .fil5 {fill:none}
    .fil6 {fill:#000000}
    .fil2 {fill:#FFFFFF}
    .fil1 {fill:#B4D8EC}
    .fil3 {fill:#B6CF9D}
    .fil4 {fill:#F7A6B6}
    .fil0 {fill:#FCFB98}
    .fnt4 {font-weight:normal;font-size:14;font-family:Arial}
    .fnt3 {font-weight:normal;font-size:16;font-family:Arial}
    .fnt2 {font-weight:normal;font-size:18;font-family:Arial}
    .fnt1 {font-weight:normal;font-size:23;font-family:Arial}
    .fnt0 {font-weight:normal;font-size:26;font-family:Arial}
   
  </style>
 
  
  
  
  
  
  
  
  
  
  
  
  
  
  
  
  
  
  
  
  
  
  
  
  
  
  
  
  
  
  
  
  
  
  
  
  
  
  
  
  
  
  
  
  
  
  
  
  
  
  
  
  
  
  
  
  
  
  
  
  
  
  
  
  
  
  
  
  
  
  
  
  
  
  
  
  
  
  
  
  
  
  
  
  
  
  
  
  
  
  
  
  
  
  
  
  
  
  
  
  
  
  
  
  
  
  
  
  
  
  
  
  
  
  
  
  
  
  
  
  
  
  
  
  
  
  
  
  
  
  
  
  
  
  
  
  
  
  
  
  
  
  
  
  
  
  
  
  
  
  
  
  
  
  
  
  
  
  
  
  
  
  
  
  
  
  
  
  
  
  
  
  
  
  
  
  
  
  
  
  
  
  
  
  
  
  
  
  
  
  
  
  
  
  
  
  
  
  
  
  
  
  
  
  
  
  
  
  
  
  
  
  
  
  
  
  
 <filter
   inkscape:collect="always"
   id="filter4266"
   x="-0.20472549"
   width="1.409451"
   y="-0.6533792"
   height="2.3067584"
   color-interpolation-filters="sRGB"><feGaussianBlur
     inkscape:collect="always"
     stdDeviation="43.376359"
     id="feGaussianBlur4268" /></filter></defs>
 
<path
   style="fill:#ff00ff;fill-opacity:1"
   id="path9"
   d="m 26.822523,3.8455898 c 0.658863,-0.1013635 1.317725,-0.050682 1.925906,0.3040904 1.925906,-0.3547722 3.344995,-0.050682 4.206585,0.9122713 0.709544,-0.1520452 1.46977,0.050682 2.179314,0.5574992 1.976588,0.8615894 3.395677,1.9765874 4.510675,3.2436314 1.824543,0.760226 2.534087,1.6724969 2.635451,2.6861319 0.962953,0.709545 1.571134,1.571134 1.976588,2.534087 L 38.68205,22.040334 21.298213,19.861019 16.077994,11.701259 26.822523,3.8455898 z"
   class="fil0" /><path
   style="fill:#007fff;fill-opacity:1"
   id="path11"
   d="m 27.278659,3.7442263 -0.760226,1.9259061 c -3.243632,0.2534087 -3.953176,1.2670437 -2.939541,2.8888587 0.608181,0.709545 -0.506818,1.317726 -0.810908,2.1286339 -0.304091,1.013634 -0.658863,2.077951 -1.16568,3.142267 0,2.736814 -1.571134,2.534087 -1.419089,3.49704 l 1.114998,1.469771 -9.680212,10.085666 C 6.8032354,29.642595 4.2184666,29.237141 3.5089223,27.868734 2.0391518,27.361917 1.1268805,25.740101 0.82279001,23.003287 0.06256395,22.19238 0.01188221,21.432153 0.26529091,20.621246 0.16392743,20.317155 0.11324569,20.013065 0.31597265,19.708974 -0.08948127,18.391249 0.11324569,17.681705 0.36665439,17.022842 0.46801787,16.009207 0.97483531,15.147618 1.7350614,14.387392 1.6843796,13.120348 2.4446057,12.461485 3.4582405,12.056032 4.2691484,9.4712631 7.9182336,7.6974021 9.3880041,7.2919481 10.350958,6.4303581 11.668683,5.9235411 13.290498,5.7208141 14.101406,5.366042 14.861632,5.1126333 15.621859,5.0112698 17.040947,4.0989985 18.662763,3.9469532 20.284579,3.9469532 21.602304,3.4908176 22.970711,3.3387724 24.3898,3.6428628 l 2.888859,0.1013635 z"
   class="fil1" /><path
   style="fill:#ff7f00;fill-opacity:1;stroke:#000000;stroke-width:0.10136348"
   id="path13"
   d="m 24.491163,30.453503 c 0.354772,1.419089 1.013635,2.382042 2.077951,2.787496 1.520453,0.709544 2.686133,2.432723 3.902494,3.953176 0.658863,-0.354773 1.368407,-0.658863 1.925906,-1.16568 l -5.777718,-6.892717 -2.128633,1.317725 z"
   class="fil2 str0" /><path
   style="fill:#ff7f00;fill-opacity:1;stroke:#000000;stroke-width:0.10136348"
   id="path15"
   d="m 26.16366,30.048049 c 0,0.304091 0.05068,0.608181 0.354773,0.912272 0.101363,1.723179 0.760226,2.280678 1.672497,2.280678 4.054539,2.584769 7.146125,2.736814 9.477485,1.216362 0.962953,-0.5575 2.483406,-1.114999 2.584769,-1.672498 1.114998,-0.557499 1.773861,-1.114998 2.382042,-1.672497 0.962953,-0.810908 0.962953,-2.229997 0.557499,-4.003858 -9.629531,-0.30409 -14.494978,0.962953 -17.029065,2.939541 z"
   class="fil2 str0" /><path
   style="fill:#00ff00;fill-opacity:1"
   id="path17"
   d="m 26.822523,16.921479 13.481343,2.128633 c 1.976588,2.33136 3.953176,4.66272 5.879082,6.99408 -1.419089,1.368407 -3.344995,1.571134 -5.422946,1.267043 -0.86159,0.456136 -2.179315,0.709545 -4.155903,0 -0.760226,0.456136 -1.520452,0.760226 -2.280678,1.013635 -1.216362,0.658863 -2.483406,0.86159 -3.801131,0.86159 -1.216362,0.202727 -2.280678,0.354772 -2.736814,0 -0.760226,0.608181 -1.419089,0.861589 -1.976588,1.013634 -0.861589,0.506818 -1.571134,0.658863 -2.280678,0.810908 -0.608181,1.469771 -2.077951,2.077952 -4.105221,2.077952 -1.368407,0.608181 -2.736814,0.658862 -4.155903,-0.608181 -1.013634,-0.506818 -1.976588,-1.114999 -2.483405,-2.33136 -0.354772,-0.405454 -0.658863,-0.760226 -0.962953,-1.16568 -0.152045,-1.419089 0.202727,-2.686133 1.267044,-3.750449 1.013634,-0.557499 1.16568,-2.02727 1.77386,-3.040904 1.16568,-1.368407 3.040905,-1.925907 5.017493,-2.331361 0.861589,-0.861589 1.875224,-1.46977 3.395676,-1.368406 0.86159,-0.86159 1.875225,-1.621816 3.547722,-1.571134 z"
   class="fil3" /><path
   style="fill:#ff7f00;fill-opacity:1"
   id="path19"
   d="m 44.155678,14.032619 c -1.46977,1.317726 -2.432723,2.128633 -3.699767,3.649086 -0.354772,1.267043 -0.152045,2.534087 0.354772,3.80113 -0.253408,1.368407 0.456136,2.432724 1.267044,3.49704 1.621815,0.354772 2.432723,0.557499 4.206584,1.114999 0.506818,-0.608181 0.912272,-1.419089 1.317725,-2.838178 0.354773,-0.557499 0.304091,-1.46977 0.152046,-2.33136 0.30409,-1.216362 -0.253409,-1.672497 -1.013635,-2.534087 -0.202727,-0.760226 -0.456136,-1.723179 -1.368407,-2.483405 0.05068,-0.506818 -0.202727,-1.317725 -1.216362,-1.875225 z"
   class="fil4" /><path
   style="fill:none;stroke:#000000;stroke-width:0.20272696"
   id="path21"
   d="m 20.33526,3.9469532 c -1.571134,-0.1013634 -3.344995,0.202727 -4.865447,1.0643166 -0.760226,0.050682 -1.571134,0.4561356 -2.229996,0.7602263 -1.469771,0.101363 -2.736814,0.608181 -3.8518129,1.46977 C 8.425051,7.5453571 7.4114162,7.9001291 6.5498267,8.6603551 4.928011,9.6233081 3.8636944,10.738306 3.356877,12.106713 c -1.0643165,0.354772 -1.6218156,1.16568 -1.6218156,2.280679 -0.76022609,0.658862 -1.26704353,1.520452 -1.36840701,2.63545 -0.40545392,0.86159 -0.35477218,1.723179 -0.10136348,2.584769 -0.0506817,0.30409 -0.2534087,0.658862 0,0.962953 -0.2534087,0.557499 -0.15204522,1.114998 0.10136348,1.672497 0.15204522,0 0.20272696,0.658863 0.40545392,0.760226 0.1013635,1.469771 0.45613569,2.432724 0.91227129,3.142268 0.5068174,0.810908 1.0136348,1.520452 1.8245427,1.723179 0.8109078,1.621816 4.1559026,1.520453 8.2104427,0.962953 0.354772,0.5575 0.709544,0.962954 1.064316,1.368407 0.557499,1.16568 1.469771,1.875225 2.584769,2.331361 0.912271,0.810907 2.027269,1.368406 4.105221,0.557499 1.976588,-0.101364 3.547722,-0.557499 4.054539,-2.077952 0.506817,-0.05068 1.16568,-0.30409 2.229997,-0.810908 0.760226,-0.152045 1.368407,-0.557499 1.925906,-1.013634 0.557499,0.405454 1.723179,0.202727 2.888859,0 1.824542,-0.101364 3.091586,-0.354773 3.699767,-0.86159 0.861589,-0.253409 1.723179,-0.506817 2.382042,-1.013635 1.520452,0.506818 2.939541,0.709545 4.105221,0 3.395676,0.354772 6.081808,-0.354772 6.791353,-4.003857 0.557499,-0.608181 0.405454,-1.520452 0.152045,-2.432724 0.557499,-0.912271 -0.202727,-1.672497 -0.962953,-2.483405 -0.101364,-1.064317 -0.608181,-1.824543 -1.368407,-2.483405 0.101363,-0.709545 -0.152045,-1.317725 -1.16568,-1.824543 -0.405454,-1.216362 -1.114998,-1.976588 -1.976588,-2.534087 0,-1.267043 -1.064317,-2.0779509 -2.63545,-2.6861319 C 38.37796,7.3933111 36.857508,6.3289951 35.083647,5.5687689 34.374102,5.0112698 33.664558,4.960588 32.955014,5.0619515 32.144106,4.0483167 30.725017,3.794908 28.799111,4.1496802 28.292294,3.794908 27.734794,3.794908 27.227977,3.794908 26.062297,3.6935445 25.048662,3.6428628 24.187073,3.6428628 22.717302,3.3387724 21.50094,3.5414993 20.33526,3.9469532 z"
   class="fil5 str1" /><path
   style="fill:#000000"
   id="path421"
   d="m 11.618001,28.831687 c -0.202727,-1.419088 0.456136,-2.686132 1.520452,-3.750448 1.16568,-0.912272 0.912272,-2.229997 1.419089,-2.635451 0.709544,-1.368407 2.584769,-2.229996 5.220219,-2.686132 0.810908,-0.962953 1.875225,-1.46977 3.344995,-1.419089 1.013635,-0.861589 1.925906,-1.672497 3.801131,-1.672497 0.101363,0.456136 0.253408,0.912271 0.456135,1.317725 -0.202727,-0.253409 -0.506817,-0.557499 -0.709544,-0.912271 -1.672498,-0.152045 -2.838178,0.810908 -3.49704,1.621815 -1.16568,-0.253408 -2.179315,0.101364 -3.142268,1.216362 -2.686132,0.506818 -4.612038,1.317725 -5.270901,2.686132 -0.354772,1.216362 -0.760226,2.229997 -1.520452,2.635451 -0.86159,0.912271 -1.621816,2.229997 -1.114999,4.155903 -0.152045,-0.152046 -0.30409,-0.405454 -0.506817,-0.5575 z"
   class="fil6" /><path
   style="fill:#000000"
   id="path423"
   d="m 26.974568,3.8455898 c -0.456135,0.3040904 -0.253408,1.0643165 -0.557499,1.6218156 -2.432723,0.1520453 -3.80113,1.0643167 -3.344995,2.7368137 0.557499,0.658863 0.658863,1.114999 0.304091,1.419089 -0.709545,0.4054539 -0.962953,1.4697699 -1.216362,2.6354509 -0.506817,0.658862 -0.810908,1.723179 -0.810908,2.838177 -0.05068,0.962953 -1.46977,1.520452 -1.267043,2.33136 0.101363,0 0.152045,0 0.202727,0 0,-0.354772 0.202727,-0.709544 0.557499,-1.013635 0.456135,-0.253409 0.658862,-0.861589 0.810908,-1.672497 -0.05068,-0.709545 0.152045,-1.419089 0.709544,-2.179315 0.253409,-0.962953 0.354772,-2.382042 1.368407,-2.8381769 0.608181,-0.253409 0.253409,-0.912272 -0.304091,-1.72318 -0.658862,-1.621815 1.114999,-2.027269 2.990223,-2.280678 0.760226,-0.2027269 0.557499,-1.4190887 1.064317,-1.8245426 -0.152046,-0.050682 -0.354772,-0.050682 -0.506818,-0.050682 z"
   class="fil6" /><path
   style="fill:#000000"
   id="path443"
   d="m 42.888635,15.147616 c -0.86159,0.709544 -1.72318,1.469772 -2.33136,2.229998 -0.456136,0.608181 -0.506818,1.469771 -0.354773,2.432724 0.101364,0.709544 0.202727,1.419088 0.354773,2.077951 0.121336,0.04074 0.610313,-0.178757 0,-1.773863 -0.202727,-0.861589 -0.304091,-1.672497 0,-2.534087 0.658862,-0.810908 1.46977,-1.621815 2.33136,-2.432723 z"
   class="fil6"
   sodipodi:nodetypes="ccccccc" /><path
   style="fill:none;stroke:#000000;stroke-width:0.10136348;stroke-dasharray:0.2534087, 0.35477218"
   id="path449"
   d="M 26.974568,16.921479 40.303866,18.99943"
   class="fil5 str3" /><path
   style="fill:#000000"
   id="path451"
   d="m 40.70932,21.736244 c 0.152045,1.16568 0.557499,2.229996 1.419089,3.040904 1.723179,0.05068 2.787495,1.013635 4.307947,1.064317 l -0.354772,0.354772 C 45.37204,26.246919 44.713177,25.638738 44.054315,25.537374 43.496816,25.334647 42.381817,25.283966 41.875,25.030557 41.114774,23.96624 40.658638,22.851242 40.70932,21.736244 z"
   class="fil6" /><path
   sodipodi:type="arc"
   style="opacity:0.76499999;fill:#ffffff;fill-opacity:1;filter:url(#filter4266)"
   id="path4260"
   sodipodi:cx="508.50171"
   sodipodi:cy="227.5833"
   sodipodi:rx="254.25085"
   sodipodi:ry="79.665268"
   d="m 762.75256,227.5833 a 254.25085,79.665268 0 1 1 -508.50171,0 254.25085,79.665268 0 1 1 508.50171,0 z"
   transform="matrix(0.04989606,-0.00927656,0.00927656,0.04989606,-8.8073396,3.26776)" /></svg>